{
  "accessors": [
    {
      "bufferView": 2,
      "componentType": 5126,
      "count": 22791,
      "max": [
        -1.7545920610427856,
        -0.25583347678184509,
        0.44866716861724854
      ],
      "min": [
        -2.1970593929290771,
        -0.94457590579986572,
        -0.65066015720367432
      ],
      "type": "VEC3"
    },
    {
      "bufferView": 2,
      "byteOffset": 273492,
      "componentType": 5126,
      "count": 22791,
      "max": [
        0.99998188018798828,
        0.99999654293060303,
        1
      ],
      "min": [
        -0.9999622106552124,
        -1,
        -1
      ],
      "type": "VEC3"
    },
    {
      "bufferView": 3,
      "componentType": 5126,
      "count": 22791,
      "max": [
        0.99982255697250366,
        0.99957907199859619,
        0.99990576505661011,
        1
      ],
      "min": [
        -0.99825191497802734,
        -0.99999362230300903,
        -0.99999547004699707,
        -1
      ],
      "type": "VEC4"
    },
    {
      "bufferView": 3,
      "byteOffset": 364656,
      "componentType": 5126,
      "count": 22791,
      "max": [
        1,
        1,
        1,
        1
      ],
      "min": [
        1,
        1,
        1,
        0
      ],
      "type": "VEC4"
    },
    {
      "bufferView": 1,
      "componentType": 5126,
      "count": 22791,
      "max": [
        0.94322085380554199,
        0.9988749623298645
      ],
      "min": [
        0.0013068262487649918,
        0.0011102540884166956
      ],
      "type": "VEC2"
    },
    {
      "bufferView": 0,
      "componentType": 5125,
      "count": 126471,
      "max": [
        22790
      ],
      "min": [
        0
      ],
      "type": "SCALAR"
    }
  ],
  "asset": {
    "extras": {
      "author": "3dhdscan (https://sketchfab.com/3dhdscan)",
      "license": "CC-BY-4.0 (http://creativecommons.org/licenses/by/4.0/)",
      "source": "https://sketchfab.com/models/dd4319f63f2548b2a613fcb52e360839",
      "title": "Bust Bohuslav Martinu"
    },
    "generator": "Sketchfab-3.19.3",
    "version": "2.0"
  },
  "bufferViews": [
    {
      "buffer": 0,
      "byteLength": 505884,
      "byteOffset": 0,
      "name": "floatBufferViews",
      "target": 34963
    },
    {
      "buffer": 0,
      "byteLength": 182328,
      "byteOffset": 505884,
      "byteStride": 8,
      "name": "floatBufferViews",
      "target": 34962
    },
    {
      "buffer": 0,
      "byteLength": 546984,
      "byteOffset": 688212,
      "byteStride": 12,
      "name": "floatBufferViews",
      "target": 34962
    },
    {
      "buffer": 0,
      "byteLength": 729312,
      "byteOffset": 1235196,
      "byteStride": 16,
      "name": "floatBufferViews",
      "target": 34962
    }
  ],
  "buffers": [
    {
      "byteLength": 1964508,
      "uri": "scene.bin"
    }
  ],
  "images": [
    {
      "uri": "textures/busta_bohuslav_martinu_baseColor.jpeg"
    },
    {
      "uri": "textures/busta_bohuslav_martinu_normal.jpeg"
    },
    {
      "uri": "textures/busta_bohuslav_martinu_metallicRoughness.png"
    }
  ],
  "materials": [
    {
      "doubleSided": true,
      "name": "busta_bohuslav_martinu",
      "normalTexture": {
        "index": 1,
        "scale": 1,
        "texCoord": 0
      },
      "occlusionTexture": {
        "index": 2,
        "strength": 1,
        "texCoord": 0
      },
      "pbrMetallicRoughness": {
        "baseColorFactor": [
          1,
          1,
          1,
          1
        ],
        "baseColorTexture": {
          "index": 0,
          "texCoord": 0
        },
        "metallicFactor": 0,
        "roughnessFactor": 0.48608993899999997
      }
    }
  ],
  "meshes": [
    {
      "name": "busta_bohuslav_martinu_busta_bohuslav_martinu _0",
      "primitives": [
        {
          "attributes": {
            "COLOR_0": 3,
            "NORMAL": 1,
            "POSITION": 0,
            "TANGENT": 2,
            "TEXCOORD_0": 4
          },
          "indices": 5,
          "material": 0,
          "mode": 4
        }
      ]
    }
  ],
  "nodes": [
    {
      "children": [
        1
      ],
      "name": "RootNode (gltf orientation matrix)",
      "rotation": [
        -0.70710678118654746,
        -0,
        -0,
        0.70710678118654757
      ]
    },
    {
      "children": [
        2
      ],
      "name": "RootNode (model correction matrix)"
    },
    {
      "children": [
        3
      ],
      "matrix": [
        1,
        0,
        0,
        0,
        0,
        0,
        1,
        0,
        0,
        -1,
        0,
        0,
        0,
        0,
        0,
        1
      ],
      "name": "busta_bohuslav_martinu.FBX"
    },
    {
      "children": [
        4
      ],
      "name": "RootNode"
    },
    {
      "children": [
        5
      ],
      "matrix": [
        4.3711389952072466e-07,
        -5.5511151231257827e-16,
        9.9999999999999911,
        0,
        9.9999999999999911,
        1.1102230246251565e-15,
        -4.3711390007583617e-07,
        0,
        -1.6653345369377348e-15,
        10,
        0,
        0,
        0,
        0,
        0,
        1
      ],
      "name": "busta_bohuslav_martinu"
    },
    {
      "mesh": 0,
      "name": "busta_bohuslav_martinu_busta_bohuslav_martinu _0"
    }
  ],
  "samplers": [
    {
      "magFilter": 9729,
      "minFilter": 9987,
      "wrapS": 33071,
      "wrapT": 33071
    },
    {
      "magFilter": 9729,
      "minFilter": 9987,
      "wrapS": 10497,
      "wrapT": 10497
    }
  ],
  "scene": 0,
  "scenes": [
    {
      "name": "OSG_Scene",
      "nodes": [
        0
      ]
    }
  ],
  "textures": [
    {
      "sampler": 0,
      "source": 0
    },
    {
      "sampler": 0,
      "source": 1
    },
    {
      "sampler": 1,
      "source": 2
    }
  ]
}

